HIERARCHY
ROOT RootJoint
{
    OFFSET   0.000000   0.000000   0.000000
    CHANNELS 6 Xposition Yposition Zposition Xrotation Yrotation Zrotation
    JOINT pelvis_lowerback
    {
        OFFSET   0.000000   0.093605   0.000000
        CHANNELS 3 Xrotation Yrotation Zrotation
        JOINT lowerback_torso
        {
            OFFSET   0.000000   0.100000   0.000000
            CHANNELS 3 Xrotation Yrotation Zrotation
            JOINT torso_head
            {
                OFFSET   0.000000   0.282350   0.000000
                CHANNELS 3 Xrotation Yrotation Zrotation
                End Site
                {
                    OFFSET   0.000000   0.192650   0.000000
                }
            }
            JOINT rTorso_Clavicle
            {
                OFFSET  -0.001000   0.157500   0.000000
                CHANNELS 3 Xrotation Yrotation Zrotation
                JOINT rShoulder
                {
                    OFFSET  -0.117647   0.000000   0.000000
                    CHANNELS 3 Xrotation Yrotation Zrotation
                    JOINT rElbow
                    {
                        OFFSET  -0.245000   0.000000   0.000000
                        CHANNELS 3 Xrotation Yrotation Zrotation
                        JOINT rWrist
                        {
                            OFFSET  -0.240000   0.000000   0.000000
                            CHANNELS 3 Xrotation Yrotation Zrotation
                            End Site
                            {
                                OFFSET  -0.116353  -0.002500   0.000000
                            }
                        }
                    }
                }
            }
            JOINT lTorso_Clavicle
            {
                OFFSET   0.001000   0.157500   0.000000
                CHANNELS 3 Xrotation Yrotation Zrotation
                JOINT lShoulder
                {
                    OFFSET   0.117647   0.000000   0.000000
                    CHANNELS 3 Xrotation Yrotation Zrotation
                    JOINT lElbow
                    {
                        OFFSET   0.245000   0.000000   0.000000
                        CHANNELS 3 Xrotation Yrotation Zrotation
                        JOINT lWrist
                        {
                            OFFSET   0.240000   0.000000   0.000000
                            CHANNELS 3 Xrotation Yrotation Zrotation
                            End Site
                            {
                                OFFSET   0.116353  -0.002500   0.000000
                            }
                        }
                    }
                }
            }
        }
    }
    JOINT rHip
    {
        OFFSET  -0.100000  -0.051395   0.000000
        CHANNELS 3 Xrotation Yrotation Zrotation
        JOINT rKnee
        {
            OFFSET   0.000000  -0.410000   0.000000
            CHANNELS 3 Xrotation Yrotation Zrotation
            JOINT rAnkle
            {
                OFFSET   0.000000  -0.390000   0.000000
                CHANNELS 3 Xrotation Yrotation Zrotation
                JOINT rToeJoint
                {
                    OFFSET   0.000000  -0.050000   0.130000
                    CHANNELS 3 Xrotation Yrotation Zrotation
                    End Site
                    {
                        OFFSET  -0.010000   0.002000   0.060000
                    }
                }
            }
        }
    }
    JOINT lHip
    {
        OFFSET   0.100000  -0.051395   0.000000
        CHANNELS 3 Xrotation Yrotation Zrotation
        JOINT lKnee
        {
            OFFSET   0.000000  -0.410000   0.000000
            CHANNELS 3 Xrotation Yrotation Zrotation
            JOINT lAnkle
            {
                OFFSET   0.000000  -0.390000   0.000000
                CHANNELS 3 Xrotation Yrotation Zrotation
                JOINT lToeJoint
                {
                    OFFSET   0.000000  -0.050000   0.130000
                    CHANNELS 3 Xrotation Yrotation Zrotation
                    End Site
                    {
                        OFFSET   0.010000   0.002000   0.060000
                    }
                }
            }
        }
    }
}
MOTION
Frames: 17
Frame Time:   0.008333
 -2.515278   0.922728   4.424751 -11.745599 -24.263976 -11.318102  25.897794   0.527896  -2.989698  11.292789  -0.019602  -2.033249   6.254702  -4.038179   0.848803   0.264335  13.394091 -11.675364   6.995088  23.100284  39.350296  -0.001475  83.314951   0.001515   4.522269   5.579850   8.787671   1.941826  -5.864322   9.177460   8.893931 -11.444968 -35.531848   0.000343 -73.368941   0.000040   3.392405  -6.368003   1.627305 -24.157911 -13.687874 -16.240881  52.452288   0.000388   0.001448   7.671473 -11.114104  12.142121  -1.982089   0.000044   0.000047   6.466636  12.320013  -0.876437   7.713333   0.000008   0.000208  -6.441923  14.344625   8.853146  -0.880544   0.000107   0.000003
 -2.515397   0.922649   4.425005 -11.801077 -24.140867 -11.312663  25.919222   0.535861  -2.970563  11.328084  -0.013744  -2.002637   6.251616  -4.079736   0.854621   0.279839  13.461025 -11.634209   7.013387  23.148072  39.307531  -0.001836  83.235128   0.001899   4.523613   5.575914   8.759058   1.968737  -5.871714   9.106581   9.026692 -11.434255 -35.591899   0.000142 -73.321177  -0.000030   3.358133  -6.418825   1.658421 -24.205666 -13.708300 -16.305224  52.811453   0.000350   0.001312   7.510873 -11.109796  12.084470  -1.944490   0.000064   0.000050   6.486707  12.261795  -0.867537   7.854187   0.000001   0.000235  -6.509105  14.291249   8.729634  -0.868126   0.000097   0.000003
 -2.515512   0.922540   4.425310 -11.866272 -24.028753 -11.303856  25.939131   0.548209  -2.955523  11.367874  -0.003622  -1.978806   6.245734  -4.119609   0.862612   0.297375  13.529177 -11.589517   7.031481  23.196688  39.269866  -0.002093  83.157959   0.002169   4.527278   5.560966   8.751627   2.005733  -5.875808   9.020286   9.160482 -11.423984 -35.660010  -0.000050 -73.268117  -0.000098   3.324170  -6.429940   1.652483 -24.239182 -13.728444 -16.374891  53.163089   0.000301   0.001165   7.361609 -11.105850  12.030574  -1.910212   0.000076   0.000047   6.513454  12.210632  -0.869017   8.009006  -0.000004   0.000256  -6.588499  14.242575   8.612571  -0.862387   0.000083   0.000002
 -2.515625   0.922417   4.425634 -11.931039 -23.924471 -11.290104  25.957314   0.564520  -2.943530  11.408052   0.010245  -1.960421   6.239034  -4.156947   0.870981   0.315195  13.594606 -11.543791   7.048422  23.244019  39.237276  -0.002252  83.085785   0.002333   4.530945   5.545158   8.751554   2.046230  -5.876884   8.928400   9.290162 -11.415009 -35.731291  -0.000199 -73.216552  -0.000145   3.290900  -6.425620   1.623170 -24.264286 -13.748128 -16.442800  53.495166   0.000247   0.001033   7.222619 -11.102152  11.980264  -1.877890   0.000081   0.000043   6.541776  12.163621  -0.878004   8.163100  -0.000006   0.000269  -6.669797  14.196773   8.502998  -0.861421   0.000067   0.000002
 -2.515734   0.922288   4.425962 -11.991624 -23.825373 -11.271306  25.974455   0.583540  -2.933996  11.447333   0.026577  -1.946071   6.232222  -4.191783   0.879106   0.332474  13.656869 -11.498929   7.064058  23.289414  39.208334  -0.002337  83.018568   0.002419   4.534216   5.531061   8.754282   2.087260  -5.876027   8.836337   9.413847 -11.407009 -35.802219  -0.000305 -73.167603  -0.000172   3.258652  -6.415858   1.582013 -24.283763 -13.767620 -16.506247  53.805905   0.000194   0.000925   7.093009 -11.098620  11.933317  -1.847804   0.000083   0.000040   6.569088  12.119150  -0.892489   8.311863  -0.000006   0.000275  -6.749302  14.152306   8.401314  -0.863824   0.000052   0.000001
 -2.515840   0.922155   4.426287 -12.046743 -23.730146 -11.247807  25.991065   0.604336  -2.926490  11.485298   0.044462  -1.934805   6.225643  -4.224257   0.886755   0.348789  13.715985 -11.455969   7.078361  23.332602  39.182047  -0.002366  82.955992   0.002448   4.537120   5.518804   8.758118   2.127325  -5.873972   8.746903   9.530790 -11.399699 -35.870874  -0.000373 -73.121483  -0.000184   3.227561  -6.403930   1.535566 -24.299108 -13.786977 -16.564270  54.095967   0.000144   0.000839   6.972091 -11.095221  11.889518  -1.819943   0.000081   0.000038   6.594375  12.076427  -0.911179   8.453664  -0.000005   0.000276  -6.825329  14.108549   8.305792  -0.868947   0.000038   0.000001
 -2.515943   0.922021   4.426607 -12.096088 -23.638252 -11.220138  26.007396   0.626244  -2.920613  11.521795   0.063286  -1.925933   6.219464  -4.254520   0.893848   0.363969  13.772036 -11.415383   7.091381  23.373488  39.157810  -0.002352  82.897720   0.002433   4.539738   5.508068   8.762293   2.165692  -5.871165   8.661461   9.640810 -11.392900 -35.936319  -0.000412 -73.078170  -0.000184   3.197668  -6.391022   1.487380 -24.311195 -13.806205 -16.616625  54.366540   0.000099   0.000773   6.859263 -11.091941  11.848660  -1.794192   0.000077   0.000037   6.617319  12.035152  -0.933286   8.587993  -0.000004   0.000273  -6.897433  14.065285   8.215965  -0.876089   0.000025   0.000001
 -2.516069   0.921869   4.427006 -12.179163 -23.574197 -11.215698  26.011903   0.651386  -2.913587  11.580180   0.080526  -1.915962   6.215763  -4.311719   0.893709   0.395006  13.871795 -11.387694   7.150385  23.496687  39.081412  -0.003027  82.814246   0.003143   4.554653   5.486913   8.728494   2.212792  -5.881494   8.567489   9.807454 -11.389025 -35.995779  -0.000845 -72.962126  -0.000478   3.159361  -6.428191   1.480903 -24.298694 -13.827874 -16.656489  54.677852   0.000011   0.000668   6.679996 -11.096197  11.773099  -1.750375   0.000087   0.000031   6.656733  11.990028  -0.946497   8.759281  -0.000013   0.000230  -6.994548  14.060570   8.100415  -0.891205   0.000007   0.000001
 -2.516198   0.921710   4.427444 -12.268632 -23.525133 -11.216174  26.012101   0.680298  -2.906310  11.637933   0.104494  -1.907590   6.209911  -4.367342   0.895453   0.426563  13.978493 -11.357908   7.204314  23.622304  39.012522  -0.003424  82.736847   0.003560   4.570167   5.468392   8.731544   2.265555  -5.890450   8.469490   9.970602 -11.385569 -36.057649  -0.001175 -72.846969  -0.000699   3.122154  -6.430610   1.440338 -24.276891 -13.853024 -16.691818  54.984784  -0.000083   0.000550   6.512751 -11.100111  11.702506  -1.713534   0.000087   0.000021   6.701742  11.953795  -0.960860   8.934352  -0.000020   0.000184  -7.099623  14.062847   7.993169  -0.906641  -0.000008   0.000000
 -2.516355   0.921552   4.427892 -12.356166 -23.481975 -11.219760  26.008913   0.712249  -2.899752  11.691625   0.133033  -1.898619   6.203297  -4.419504   0.898297   0.456745  14.083592 -11.325151   7.252911  23.744418  38.951774  -0.003594  82.665924   0.003738   4.583885   5.458221   8.745382   2.317949  -5.897367   8.373438  10.125601 -11.382556 -36.118555  -0.001370 -72.738118  -0.000819   3.086197  -6.421433   1.385061 -24.246736 -13.881724 -16.717817  55.276700  -0.000164   0.000451   6.356948 -11.103591  11.636682  -1.679118   0.000084   0.000012   6.746347  11.924342  -0.979386   9.105606  -0.000016   0.000147  -7.225581  14.062645   7.997864  -0.899094  -0.000006   0.000000
 -2.516535   0.921399   4.428340 -12.438117 -23.442660 -11.220909  26.002901   0.745949  -2.895426  11.740352   0.163698  -1.890827   6.196375  -4.468226   0.901199   0.485157  14.184666 -11.291661   7.297122  23.861080  38.897179  -0.003609  82.600669   0.003756   4.596020   5.454673   8.761950   2.367981  -5.902829   8.281806  10.271317 -11.379778 -36.176760  -0.001454 -72.636125  -0.000858   3.051620  -6.409298   1.326146 -24.213272 -13.911216 -16.739408  55.551640  -0.000226   0.000374   6.211693 -11.106639  11.575281  -1.647023   0.000079   0.000006   6.789368  11.896951  -0.997586   9.269426  -0.000015   0.000117  -7.347259  14.063048   7.999882  -0.893057  -0.000005   0.000000
 -2.516731   0.921250   4.428785 -12.513174 -23.405426 -11.218233  25.994805   0.780165  -2.892261  11.784166   0.194914  -1.884412   6.189417  -4.513688   0.903812   0.511541  14.280718 -11.259288   7.337638  23.971358  38.846999  -0.003520  82.540353   0.003667   4.607003   5.455334   8.778620   2.414998  -5.907332   8.195419  10.407657 -11.377229 -36.231705  -0.001459 -72.540883  -0.000844   3.018447  -6.397013   1.268052 -24.178538 -13.940489 -16.758406  55.809313  -0.000270   0.000317   6.076210 -11.109315  11.517993  -1.617227   0.000073   0.000002   6.830053  11.871132  -1.016519   9.424505  -0.000015   0.000095  -7.463481  14.062486   7.999893  -0.888227  -0.000004   0.000000
 -2.516940   0.921105   4.429224 -12.581279 -23.369703 -11.211690  25.985296   0.814195  -2.889777  11.823510   0.225890  -1.879091   6.182606  -4.556087   0.906139   0.535822  14.371459 -11.228834   7.374891  24.074999  38.800259  -0.003364  82.484420   0.003508   4.617163   5.458427   8.794182   2.458839  -5.911132   8.114546  10.534944 -11.374844 -36.283162  -0.001410 -72.452036  -0.000796   2.986653  -6.385375   1.212544 -24.143456 -13.968969 -16.775315  56.050211  -0.000297   0.000275   5.949808 -11.111672  11.464532  -1.589655   0.000067  -0.000001   6.868230  11.846571  -1.036304   9.570728  -0.000017   0.000079  -7.574036  14.060701   7.998267  -0.884363  -0.000004   0.000000
 -2.517169   0.920943   4.429668 -12.683680 -23.320032 -11.235001  26.015075   0.827568  -2.859033  11.842703   0.242538  -1.868412   6.199839  -4.610912   0.903424   0.557034  14.509798 -11.183535   7.481486  24.236980  38.637729  -0.002899  82.469289   0.003032   4.634753   5.409904   8.808265   2.509227  -5.950860   7.986708  10.680825 -11.316741 -36.323514  -0.001584 -72.302986  -0.000886   2.967021  -6.418929   1.169335 -24.058041 -14.010705 -16.770887  56.268370  -0.000310   0.000253   5.847766 -11.101754  11.372752  -1.589782   0.000054  -0.000001   6.892269  11.830752  -1.021668   9.814817  -0.000033   0.000099  -7.747604  14.043185   7.937429  -0.868057   0.000005   0.000000
 -2.517412   0.920756   4.430127 -12.793264 -23.279122 -11.256436  26.043362   0.842608  -2.829871  11.863186   0.262266  -1.860010   6.215819  -4.663838   0.904271   0.572928  14.653452 -11.141505   7.575785  24.398108  38.483718  -0.002439  82.459848   0.002556   4.650313   5.386075   8.844924   2.561100  -5.991967   7.853838  10.820154 -11.263841 -36.367657  -0.001699 -72.156864  -0.000937   2.947824  -6.416306   1.111457 -23.970206 -14.049536 -16.766745  56.475737  -0.000331   0.000227   5.752836 -11.092329  11.286991  -1.588779   0.000043  -0.000000   6.920375  11.821188  -1.013236  10.067226  -0.000045   0.000109  -7.925135  14.029214   7.888628  -0.855434   0.000008   0.000000
 -2.517672   0.920557   4.430589 -12.902149 -23.242754 -11.271657  26.068506   0.859882  -2.803366  11.882238   0.284275  -1.853798   6.230229  -4.713475   0.906301   0.585423  14.793868 -11.100393   7.660414  24.552605  38.340573  -0.002030  82.452983   0.002132   4.663413   5.376885   8.881328   2.611423  -6.032402   7.722887  10.951102 -11.216966 -36.413231  -0.001723 -72.019773  -0.000926   2.929205  -6.404872   1.043554 -23.885698 -14.086610 -16.763540  56.669850  -0.000351   0.000205   5.664334 -11.083418  11.206974  -1.587524   0.000035  -0.000000   6.951824  11.814094  -1.011979  10.313725  -0.000056   0.000115  -8.098382  14.016635   7.847430  -0.845370   0.000009   0.000000
 -2.517952   0.920352   4.431046 -13.007382 -23.207889 -11.280100  26.090603   0.878494  -2.779021  11.899242   0.307218  -1.849062   6.243252  -4.759820   0.908641   0.595828  14.928360 -11.060604   7.737616  24.698957  38.207413  -0.001682  82.447580   0.001769   4.674922   5.375345   8.914151   2.659059  -6.071379   7.596963  11.073500 -11.174900 -36.458223  -0.001673 -71.891986  -0.000867   2.911317  -6.393582   0.972000 -23.805697 -14.122101 -16.760098  56.850557  -0.000367   0.000191   5.581770 -11.074979  11.132326  -1.586173   0.000029  -0.000000   6.985250  11.807633  -1.016453  10.550597  -0.000064   0.000120  -8.264813  14.003741   7.811343  -0.837246   0.000009   0.000000
